# xmcd
#
# Track frame offsets:
#	150
#	16635
#	36797
#	55905
#	83711
#	102585
#	122579
#	137855
#	155625
#	175950
#	198571
#	218948
#	241353
#	264719
#	284399
#	307085
#	325571
#
# Disc length: 4631 seconds
#
# Revision: 2
# Processed by: cddbd v1.5.2PL0 Copyright (c) Steve Scherf et al.
# Submitted via: audiograbber 1.83.01
#
DISCID=f6121511
DTITLE=Various Artist - Gothic Romance 5 cd1
DYEAR=2012
DGENRE=Gothic
TTITLE0=Lacuna Coil - Within Me
TTITLE1=Nightwish - Away
TTITLE2=Mono Inc. - Never Say Die
TTITLE3=Poisonblack - From Now-here To Nowhere
TTITLE4=Nemesea - High Enough
TTITLE5=Stream of Passion - The Hunt
TTITLE6=Exilia - In My Veins
TTITLE7=Xandria - Some Like It Cold
TTITLE8=Delain - Come Closer
TTITLE9=Sentenced - End Of The Road
TTITLE10=Coronatus - Terra Incognita
TTITLE11=Dommin - Remember
TTITLE12=Leandra - Lullaby
TTITLE13=The Beauty of Gemina - Voices Of Winter
TTITLE14=Arven - Midwinter Nights
TTITLE15=Eisbrecher - Der Hauch Des Lebens
TTITLE16=Type o Negative - Love You To Death
EXTD=
EXTT0=
EXTT1=
EXTT2=
EXTT3=
EXTT4=
EXTT5=
EXTT6=
EXTT7=
EXTT8=
EXTT9=
EXTT10=
EXTT11=
EXTT12=
EXTT13=
EXTT14=
EXTT15=
EXTT16=
PLAYORDER=
